<?xml version="1.0" encoding="UTF-8"?>
<svg id="b" data-name="Layer 2" xmlns="http://www.w3.org/2000/svg" width="42.826" height="42.189" viewBox="0 0 42.826 42.189">
  <g id="c" data-name="Layer 1">
    <g>
      <g>
        <path d="M21.053,40.322c.242-.033.493.01.735-.025s.512.113.753.075.443-.322.684-.364.474-.117.714-.162.528.148.767.098.471-.145.709-.2.433-.289.669-.349.472-.12.707-.187.538.09.771.017.368-.44.599-.521.456-.161.683-.25.512-.032.737-.129.468-.153.689-.259.485-.132.701-.247.38-.33.59-.454.291-.449.497-.583c.199-.13.462-.159.656-.297s.38-.283.57-.426.335-.338.52-.487.576-.055.756-.211.143-.554.317-.717.539-.127.707-.296.287-.39.449-.564.273-.397.428-.577.417-.277.565-.463.066-.549.207-.741.238-.407.371-.604.431-.284.556-.487.081-.5.197-.708.411-.318.518-.53.033-.508.13-.726.29-.389.378-.611c.089-.227.251-.418.334-.633.088-.228.289-.406.369-.622.086-.23-.034-.527.042-.745.082-.23.221-.432.293-.65.076-.231-.04-.512.025-.732.069-.234.468-.369.525-.592.06-.235-.177-.532-.131-.758.047-.236.253-.438.284-.668.033-.236.185-.464.201-.698.016-.236-.333-.481-.334-.717-.001-.233.102-.463.084-.701-.018-.23-.006-.464-.04-.702-.032-.227-.099-.451-.146-.688-.044-.224.017-.478-.04-.714-.054-.222-.225-.419-.291-.654-.062-.22-.061-.465-.133-.698-.068-.218-.083-.462-.16-.692-.073-.218-.088-.465-.169-.695-.077-.217-.092-.466-.176-.696-.083-.227-.512-.319-.594-.536-.085-.226-.073-.482-.158-.696-.088-.225.043-.532-.044-.746-.092-.224-.322-.386-.412-.597-.096-.223-.274-.403-.368-.613-.1-.222.031-.544-.068-.751-.104-.22-.289-.396-.392-.601-.11-.218-.167-.457-.275-.659-.115-.215-.347-.359-.462-.556-.122-.211-.099-.505-.221-.698-.13-.207-.455-.28-.585-.467-.139-.202-.214-.439-.352-.62-.148-.194-.2-.463-.348-.635-.158-.185-.536-.16-.694-.323-.169-.175-.166-.515-.336-.669-.179-.162-.345-.342-.525-.485-.187-.149-.362-.321-.551-.455-.193-.136-.591.035-.788-.091s-.378-.271-.579-.393c-.199-.12-.398-.241-.602-.362-.214-.126-.436-.233-.652-.356s-.337-.414-.556-.531-.433-.247-.655-.357-.479-.15-.706-.25-.387-.373-.619-.462-.555.078-.792.002c-.223-.071-.435-.164-.662-.225s-.418-.256-.647-.308-.439-.213-.67-.255-.473-.05-.705-.082-.482.056-.715.032-.471.01-.705-.005-.469.063-.704.056-.464-.027-.698-.026-.466-.015-.7-.006-.471-.068-.706-.051-.453.176-.687.2-.496-.206-.728-.176-.456.141-.687.179-.426.276-.656.32-.456.088-.685.139-.512-.127-.739-.069-.481.034-.706.098-.406.289-.629.359-.382.331-.603.408c-.22.076-.489.006-.705.088-.218.082-.406.234-.621.322s-.489.038-.701.132c-.213.095-.452.136-.661.236-.21.101-.451.146-.656.253-.207.107-.289.45-.491.563-.203.113-.475.105-.673.223-.2.119-.322.361-.516.486-.197.127-.374.27-.559.405-.189.138-.527.083-.705.229-.18.148-.304.369-.473.525-.171.158-.185.472-.345.638-.161.167-.444.218-.595.393s-.338.325-.481.507-.212.422-.348.609-.176.437-.304.63-.332.333-.454.531c-.121.196-.346.332-.462.532s-.274.379-.385.583c-.11.202.047.548-.061.754s-.185.424-.29.633c-.087.174-.3.337-.441.571-.109.18-.317.328-.444.549-.109.189-.341.334-.454.556-.101.197-.135.448-.234.674-.09.205-.276.391-.361.621-.078.211.156.538.087.771-.064.217-.221.413-.276.65-.051.221.015.468-.026.708-.038.224-.384.413-.411.654-.026.227.021.473.006.715-.014.228.138.47.135.712-.003.228.065.458.073.7.007.229.044.457.061.698.017.229-.234.489-.207.729.026.229.253.438.288.677.034.228.179.438.222.675.041.227.02.466.071.702.048.225.1.45.156.683.055.225.033.472.096.704.061.224.248.414.317.646.066.221.106.451.18.679.072.222-.052.514.028.743.077.221.325.387.409.614.119.339-.101.315.071.741.076.188.321.346.433.597.089.2.131.443.243.677.097.203.176.432.292.656.105.204.264.391.384.609.112.203.107.483.232.696.118.201.472.266.603.475.124.198.122.481.257.684.131.196.129.49.27.688.137.192.281.39.429.583.143.189.463.245.616.433.15.184.199.458.358.641.157.179.429.257.595.434.163.174.15.526.322.696.17.168.46.218.638.381.176.161.426.24.611.395.183.154.234.477.425.624.189.146.48.161.678.3.196.137.355.334.559.463.202.128.408.257.619.376.208.118.446.185.662.294.213.107.485.084.707.182.218.096.379.33.605.416.223.084.469.108.7.181.227.073.474.074.709.135.23.06.404.384.642.433.233.048.495-.015.735.022.235.036.479.049.721.073.236.024.483-.055.726-.043.238.012.476.093.72.093.237,0,.47-.21.713-.221.238-.011.503.33.746.308.237-.022.446-.334.689-.367Z" fill="#ed1c24"/>
        <path d="M21.053,40.322c.242-.033.493.01.735-.025s.512.113.753.075.443-.322.684-.364.474-.117.714-.162.528.148.767.098.471-.145.709-.2.433-.289.669-.349.472-.12.707-.187.538.09.771.017.368-.44.599-.521.456-.161.683-.25.512-.032.737-.129.468-.153.689-.259.485-.132.701-.247.38-.33.59-.454.291-.449.497-.583c.199-.13.462-.159.656-.297s.38-.283.57-.426.335-.338.52-.487.576-.055.756-.211.143-.554.317-.717.539-.127.707-.296.287-.39.449-.564.273-.397.428-.577.417-.277.565-.463.066-.549.207-.741.238-.407.371-.604.431-.284.556-.487.081-.5.197-.708.411-.318.518-.53.033-.508.13-.726.29-.389.378-.611c.089-.227.251-.418.334-.633.088-.228.289-.406.369-.622.086-.23-.034-.527.042-.745.082-.23.221-.432.293-.65.076-.231-.04-.512.025-.732.069-.234.468-.369.525-.592.06-.235-.177-.532-.131-.758.047-.236.253-.438.284-.668.033-.236.185-.464.201-.698.016-.236-.333-.481-.334-.717-.001-.233.102-.463.084-.701-.018-.23-.006-.464-.04-.702-.032-.227-.099-.451-.146-.688-.044-.224.017-.478-.04-.714-.054-.222-.225-.419-.291-.654-.062-.22-.061-.465-.133-.698-.068-.218-.083-.462-.16-.692-.073-.218-.088-.465-.169-.695-.077-.217-.092-.466-.176-.696-.083-.227-.512-.319-.594-.536-.085-.226-.073-.482-.158-.696-.088-.225.043-.532-.044-.746-.092-.224-.322-.386-.412-.597-.096-.223-.274-.403-.368-.613-.1-.222.031-.544-.068-.751-.104-.22-.289-.396-.392-.601-.11-.218-.167-.457-.275-.659-.115-.215-.347-.359-.462-.556-.122-.211-.099-.505-.221-.698-.13-.207-.455-.28-.585-.467-.139-.202-.214-.439-.352-.62-.148-.194-.2-.463-.348-.635-.158-.185-.536-.16-.694-.323-.169-.175-.166-.515-.336-.669-.179-.162-.345-.342-.525-.485-.187-.149-.362-.321-.551-.455-.193-.136-.591.035-.788-.091s-.378-.271-.579-.393c-.199-.12-.398-.241-.602-.362-.214-.126-.436-.233-.652-.356s-.337-.414-.556-.531-.433-.247-.655-.357-.479-.15-.706-.25-.387-.373-.619-.462-.555.078-.792.002c-.223-.071-.435-.164-.662-.225s-.418-.256-.647-.308-.439-.213-.67-.255-.473-.05-.705-.082-.482.056-.715.032-.471.01-.705-.005-.469.063-.704.056-.464-.027-.698-.026-.466-.015-.7-.006-.471-.068-.706-.051-.453.176-.687.2-.496-.206-.728-.176-.456.141-.687.179-.426.276-.656.32-.456.088-.685.139-.512-.127-.739-.069-.481.034-.706.098-.406.289-.629.359-.382.331-.603.408c-.22.076-.489.006-.705.088-.218.082-.406.234-.621.322s-.489.038-.701.132c-.213.095-.452.136-.661.236-.21.101-.451.146-.656.253-.207.107-.289.45-.491.563-.203.113-.475.105-.673.223-.2.119-.322.361-.516.486-.197.127-.374.27-.559.405-.189.138-.527.083-.705.229-.18.148-.304.369-.473.525-.171.158-.185.472-.345.638-.161.167-.444.218-.595.393s-.338.325-.481.507-.212.422-.348.609-.176.437-.304.63-.332.333-.454.531c-.121.196-.346.332-.462.532s-.274.379-.385.583c-.11.202.047.548-.061.754s-.185.424-.29.633c-.087.174-.3.337-.441.571-.109.18-.317.328-.444.549-.109.189-.341.334-.454.556-.101.197-.135.448-.234.674-.09.205-.276.391-.361.621-.078.211.156.538.087.771-.064.217-.221.413-.276.65-.051.221.015.468-.026.708-.038.224-.384.413-.411.654-.026.227.021.473.006.715-.014.228.138.47.135.712-.003.228.065.458.073.7.007.229.044.457.061.698.017.229-.234.489-.207.729.026.229.253.438.288.677.034.228.179.438.222.675.041.227.02.466.071.702.048.225.1.45.156.683.055.225.033.472.096.704.061.224.248.414.317.646.066.221.106.451.18.679.072.222-.052.514.028.743.077.221.325.387.409.614.119.339-.101.315.071.741.076.188.321.346.433.597.089.2.131.443.243.677.097.203.176.432.292.656.105.204.264.391.384.609.112.203.107.483.232.696.118.201.472.266.603.475.124.198.122.481.257.684.131.196.129.49.27.688.137.192.281.39.429.583.143.189.463.245.616.433.15.184.199.458.358.641.157.179.429.257.595.434.163.174.15.526.322.696.17.168.46.218.638.381.176.161.426.24.611.395.183.154.234.477.425.624.189.146.48.161.678.3.196.137.355.334.559.463.202.128.408.257.619.376.208.118.446.185.662.294.213.107.485.084.707.182.218.096.379.33.605.416.223.084.469.108.7.181.227.073.474.074.709.135.23.06.404.384.642.433.233.048.495-.015.735.022.235.036.479.049.721.073.236.024.483-.055.726-.043.238.012.476.093.72.093.237,0,.47-.21.713-.221.238-.011.503.33.746.308.237-.022.446-.334.689-.367Z" fill="none" stroke="#ed1c24" stroke-miterlimit="10" stroke-width="3"/>
      </g>
      <g>
        <path d="M17.675,4.096c.284-.304.427-.003.843-.003s.417.074.833.074.466-.287.749.019c.306.331.224.373.224.824s-.176.45-.176.9.189.45.189.9-.069.451-.069.903-.012.451-.012.901-.007.45-.007.901-.176.45-.176.899c0,.452.081.452.081.904s-.035.453-.035.905.046.454.046.908.093.45.114.904c0,.021-.038.047-.023.033.206-.233.392-.487.598-.718s.53-.357.736-.587.209-.644.416-.873.592-.299.799-.528.297-.564.505-.791.546-.335.754-.561.286-.657.494-.882c.487-.092.516.212,1.012.212s.497-.063.995-.063.54-.265,1.018-.128c-.207.225-.418.551-.625.776s-.384.478-.591.702-.389.473-.596.698-.479.389-.687.613-.474.394-.682.617-.343.516-.552.739-.589.405-.799.627c.166.233.423.515.588.748s.257.518.422.75.559.304.724.537.307.482.472.715.162.584.327.817.316.475.481.708.345.454.51.686.458.373.624.605.349.45.514.682.31.643.476.874c-.467.134-.525-.26-1.01-.26s-.487.197-.974.197-.524.152-1,.05c-.174-.246-.273-.65-.447-.896s-.381-.469-.553-.717-.32-.512-.493-.759-.349-.492-.522-.739-.336-.501-.509-.748-.335-.502-.508-.749-.401-.549-.575-.795c-.23.251-.362.691-.597.939-.238.251-.642.39-.874.633-.09.452-.046.474-.046.934s-.023.461-.023.923.257.463.257.925.281.666-.028,1.011c-.278.309-.51-.139-.926-.139s-.417-.052-.833-.052-.633.489-.919.186c-.303-.321.042-.522.042-.964s.008-.442.008-.883.029-.441.029-.882-.124-.441-.124-.883.253-.442.253-.883.009-.44.009-.88-.008-.44-.008-.879-.118-.44-.118-.881.01-.442.01-.885-.159-.441-.159-.883.073-.441.073-.883.127-.443.127-.886.11-.442.11-.884-.133-.442-.133-.884.053-.441.053-.882c0-.443.074-.443.074-.887s-.182-.444-.182-.888.033-.437-.06-.873c-.101-.469-.232-.594.071-.919Z" fill="#e5d4c8"/>
        <path d="M12.477,23.261c.291-.371.431-.11.903-.11s.473.124.946.124.506-.229.962-.105c.088.281.101.641.19.922s.31.521.4.802-.018.625.072.907.231.546.322.827.137.577.227.858.245.542.335.823.167.567.257.849.228.547.318.829.325.516.414.798-.033.647.056.928c.015.028.078-.044.094-.071.095-.281.351-.497.446-.778s.16-.573.255-.854.249-.543.345-.824-.075-.653.02-.934.397-.493.493-.774.228-.55.323-.832.123-.586.219-.867.129-.584.224-.865.369-.502.464-.784-.022-.752.072-1.033c.355-.118.418-.014.792-.014s.375.006.75.006.419-.051.774.068c.094.281.328.581.423.862s.096.594.191.876.015.622.11.903.305.524.4.805.269.536.365.817.017.622.113.903.334.514.43.795.108.591.203.872.205.558.3.839.192.563.287.845c.009.019.216.095.225.076.09-.281.002-.646.093-.927s.367-.503.457-.784-.085-.648.006-.93.131-.579.222-.86.434-.481.525-.762.169-.567.26-.848.155-.571.245-.853.079-.595.169-.877.351-.508.44-.79.024-.633.112-.915c.451-.124.474.144.943.144s.469-.068.939-.068.755-.505,1.046-.137c.272.344-.36.462-.501.877s-.177.402-.318.817.154.515.013.931-.23.387-.372.804-.336.35-.478.766-.065.442-.207.858-.123.424-.265.841-.054.447-.195.864-.119.424-.26.841-.297.363-.438.779c-.142.418-.234.387-.376.805s-.072.443-.214.861.11.506-.033.925-.068.535-.438.779c-.411.272-.485.07-.978.07s-.494-.127-.988-.127-.541.318-1.02.2c-.089-.266-.275-.62-.363-.888-.088-.266.091-.62.003-.887s-.375-.469-.462-.736-.262-.507-.35-.776.09-.623.003-.891-.424-.459-.511-.728-.155-.545-.242-.814-.142-.548-.227-.817-.247-.513-.332-.781-.059-.566-.143-.833c-.004-.01.027-.034.023-.024-.086.268-.024.585-.112.854-.087.267-.378.469-.466.737s.049.611-.04.879-.283.502-.373.771-.391.466-.482.735-.179.538-.27.806.026.608-.066.876-.378.471-.471.739.074.625-.019.892-.355.309-.448.575c-.464.117-.433.316-.911.316s-.48-.056-.96-.056-.593.236-.992-.03c-.364-.244-.262-.412-.403-.827s.171-.521.03-.935-.475-.302-.616-.717.124-.507-.018-.924-.334-.351-.476-.767.127-.507-.015-.924-.478-.303-.62-.721.115-.504-.026-.921-.378-.336-.52-.753.071-.488-.07-.904c-.142-.418-.073-.442-.215-.86s-.391-.334-.533-.753-.065-.422-.299-.799c-.245-.395-.39-.539-.117-.888Z" fill="#e5d4c8"/>
      </g>
    </g>
  </g>
</svg>